<svg xmlns="http://www.w3.org/2000/svg" width="870" height="500" fill="none" viewBox="0 0 870 500"><rect width="870" height="500" fill="#F7F7F7"/><rect width="4.244" height="8.375" y="491.625" fill="#9EA0A3" rx="2.122"/><rect width="4.244" height="5.025" x="8.488" y="494.975" fill="#9EA0A3" rx="2.122"/><rect width="4.244" height="4.188" x="16.976" y="495.812" fill="#9EA0A3" rx="2.094"/><rect width="4.244" height="7.538" x="25.463" y="492.462" fill="#9EA0A3" rx="2.122"/><rect width="4.244" height="15.075" x="33.951" y="484.925" fill="#9EA0A3" rx="2.122"/><rect width="4.244" height="10.05" x="42.439" y="489.95" fill="#9EA0A3" rx="2.122"/><rect width="4.244" height="12.563" x="50.927" y="487.437" fill="#9EA0A3" rx="2.122"/><rect width="4.244" height="15.075" x="59.415" y="484.925" fill="#9EA0A3" rx="2.122"/><rect width="4.244" height="17.588" x="67.902" y="482.412" fill="#9EA0A3" rx="2.122"/><rect width="4.244" height="20.938" x="76.39" y="479.062" fill="#9EA0A3" rx="2.122"/><rect width="4.244" height="25.126" x="84.878" y="474.875" fill="#9EA0A3" rx="2.122"/><rect width="4.244" height="23.451" x="93.366" y="476.549" fill="#9EA0A3" rx="2.122"/><rect width="4.244" height="20.101" x="101.854" y="479.899" fill="#9EA0A3" rx="2.122"/><rect width="4.244" height="16.75" x="110.341" y="483.25" fill="#9EA0A3" rx="2.122"/><rect width="4.244" height="22.613" x="118.829" y="477.387" fill="#9EA0A3" rx="2.122"/><rect width="4.244" height="24.288" x="127.317" y="475.712" fill="#9EA0A3" rx="2.122"/><rect width="4.244" height="20.101" x="135.805" y="479.899" fill="#9EA0A3" rx="2.122"/><rect width="4.244" height="19.263" x="144.293" y="480.737" fill="#9EA0A3" rx="2.122"/><rect width="4.244" height="25.126" x="152.78" y="474.875" fill="#9EA0A3" rx="2.122"/><rect width="4.244" height="34.338" x="161.268" y="465.662" fill="#9EA0A3" rx="2.122"/><rect width="4.244" height="32.663" x="169.756" y="467.337" fill="#9EA0A3" rx="2.122"/><rect width="4.244" height="32.663" x="178.244" y="467.337" fill="#9EA0A3" rx="2.122"/><rect width="4.244" height="30.151" x="186.732" y="469.849" fill="#9EA0A3" rx="2.122"/><rect width="4.244" height="27.638" x="195.22" y="472.362" fill="#9EA0A3" rx="2.122"/><rect width="4.244" height="29.313" x="203.707" y="470.687" fill="#9EA0A3" rx="2.122"/><rect width="4.244" height="32.663" x="212.195" y="467.337" fill="#9EA0A3" rx="2.122"/><rect width="4.244" height="28.476" x="220.683" y="471.524" fill="#9EA0A3" rx="2.122"/><rect width="4.244" height="27.638" x="229.171" y="472.362" fill="#9EA0A3" rx="2.122"/><rect width="4.244" height="25.126" x="237.659" y="474.875" fill="#9EA0A3" rx="2.122"/><rect width="4.244" height="30.988" x="246.146" y="469.012" fill="#9EA0A3" rx="2.122"/><rect width="4.244" height="32.663" x="254.634" y="467.337" fill="#9EA0A3" rx="2.122"/><rect width="4.244" height="30.151" x="263.122" y="469.849" fill="#9EA0A3" rx="2.122"/><rect width="4.244" height="27.638" x="271.61" y="472.362" fill="#9EA0A3" rx="2.122"/><rect width="4.244" height="30.151" x="280.098" y="469.849" fill="#9EA0A3" rx="2.122"/><rect width="4.244" height="41.038" x="288.585" y="458.961" fill="#9EA0A3" rx="2.122"/><rect width="4.244" height="51.926" x="297.073" y="448.074" fill="#9EA0A3" rx="2.122"/><rect width="4.244" height="58.627" x="305.561" y="441.374" fill="#9EA0A3" rx="2.122"/><rect width="4.244" height="71.189" x="314.049" y="428.811" fill="#9EA0A3" rx="2.122"/><rect width="4.244" height="70.352" x="322.537" y="429.648" fill="#9EA0A3" rx="2.122"/><rect width="4.244" height="68.677" x="331.024" y="431.323" fill="#9EA0A3" rx="2.122"/><rect width="4.244" height="84.59" x="339.512" y="415.41" fill="#9EA0A3" rx="2.122"/><rect width="4.244" height="77.889" x="348" y="422.111" fill="#9EA0A3" rx="2.122"/><rect width="4.244" height="71.189" x="356.488" y="428.811" fill="#9EA0A3" rx="2.122"/><rect width="4.244" height="72.027" x="364.976" y="427.973" fill="#9EA0A3" rx="2.122"/><rect width="4.244" height="74.539" x="373.463" y="425.461" fill="#9EA0A3" rx="2.122"/><rect width="4.244" height="93.802" x="381.951" y="406.198" fill="#9EA0A3" rx="2.122"/><rect width="4.244" height="59.464" x="390.439" y="440.536" fill="#9EA0A3" rx="2.122"/><rect width="4.244" height="60.301" x="398.927" y="439.698" fill="#9EA0A3" rx="2.122"/><rect width="4.244" height="69.514" x="407.415" y="430.486" fill="#9EA0A3" rx="2.122"/><rect width="4.244" height="65.327" x="415.902" y="434.673" fill="#9EA0A3" rx="2.122"/><rect width="4.244" height="69.514" x="424.39" y="430.486" fill="#9EA0A3" rx="2.122"/><rect width="4.244" height="56.114" x="432.878" y="443.886" fill="#9EA0A3" rx="2.122"/><rect width="4.244" height="62.814" x="441.366" y="437.186" fill="#9EA0A3" rx="2.122"/><rect width="4.244" height="64.489" x="449.854" y="435.511" fill="#9EA0A3" rx="2.122"/><rect width="4.244" height="60.301" x="458.341" y="439.698" fill="#9EA0A3" rx="2.122"/><rect width="4.244" height="59.464" x="466.829" y="440.536" fill="#9EA0A3" rx="2.122"/><rect width="4.244" height="68.677" x="475.317" y="431.323" fill="#9EA0A3" rx="2.122"/><rect width="4.244" height="70.352" x="483.805" y="429.648" fill="#9EA0A3" rx="2.122"/><rect width="4.244" height="67.002" x="492.293" y="432.998" fill="#9EA0A3" rx="2.122"/><rect width="4.244" height="72.027" x="500.78" y="427.973" fill="#9EA0A3" rx="2.122"/><rect width="4.244" height="76.214" x="509.268" y="423.786" fill="#9EA0A3" rx="2.122"/><rect width="4.244" height="70.352" x="517.756" y="429.648" fill="#9EA0A3" rx="2.122"/><rect width="4.244" height="72.027" x="526.244" y="427.973" fill="#9EA0A3" rx="2.122"/><rect width="4.244" height="73.702" x="534.732" y="426.298" fill="#9EA0A3" rx="2.122"/><rect width="4.244" height="86.265" x="543.219" y="413.735" fill="#9EA0A3" rx="2.122"/><rect width="4.244" height="92.127" x="551.707" y="407.873" fill="#9EA0A3" rx="2.122"/><rect width="4.244" height="89.615" x="560.195" y="410.385" fill="#9EA0A3" rx="2.122"/><rect width="4.244" height="95.477" x="568.683" y="404.522" fill="#9EA0A3" rx="2.122"/><rect width="4.244" height="119.766" x="577.171" y="380.234" fill="#9EA0A3" rx="2.122"/><rect width="4.244" height="105.528" x="585.659" y="394.472" fill="#9EA0A3" rx="2.122"/><rect width="4.244" height="118.09" x="594.146" y="381.91" fill="#9EA0A3" rx="2.122"/><rect width="4.244" height="132.328" x="602.634" y="367.672" fill="#9EA0A3" rx="2.122"/><rect width="4.244" height="128.978" x="611.122" y="371.022" fill="#9EA0A3" rx="2.122"/><rect width="4.244" height="116.415" x="619.61" y="383.584" fill="#9EA0A3" rx="2.122"/><rect width="4.244" height="124.791" x="628.098" y="375.209" fill="#9EA0A3" rx="2.122"/><rect width="4.244" height="141.541" x="636.585" y="358.459" fill="#9EA0A3" rx="2.122"/><rect width="4.244" height="135.678" x="645.073" y="364.322" fill="#9EA0A3" rx="2.122"/><rect width="4.244" height="131.491" x="653.561" y="368.509" fill="#9EA0A3" rx="2.122"/><rect width="4.244" height="156.616" x="662.049" y="343.384" fill="#9EA0A3" rx="2.122"/><rect width="4.244" height="166.667" x="670.537" y="333.333" fill="#9EA0A3" rx="2.122"/><rect width="4.244" height="233.668" x="679.024" y="266.332" fill="#9EA0A3" rx="2.122"/><rect width="4.244" height="299.832" x="687.512" y="200.167" fill="#9EA0A3" rx="2.122"/><rect width="4.244" height="262.144" x="696" y="237.856" fill="#9EA0A3" rx="2.122"/><rect width="4.244" height="292.295" x="704.488" y="207.705" fill="#9EA0A3" rx="2.122"/><rect width="4.244" height="312.395" x="712.976" y="187.605" fill="#9EA0A3" rx="2.122"/><rect width="4.244" height="345.896" x="721.463" y="154.104" fill="#9EA0A3" rx="2.122"/><rect width="4.244" height="315.745" x="729.951" y="184.255" fill="#9EA0A3" rx="2.122"/><rect width="4.244" height="339.196" x="738.439" y="160.804" fill="#9EA0A3" rx="2.122"/><rect width="4.244" height="369.347" x="746.927" y="130.653" fill="#9EA0A3" rx="2.122"/><rect width="4.244" height="409.548" x="755.415" y="90.452" fill="#9EA0A3" rx="2.122"/><rect width="4.244" height="443.049" x="763.902" y="56.951" fill="#9EA0A3" rx="2.122"/><rect width="4.244" height="466.499" x="772.39" y="33.501" fill="#9EA0A3" rx="2.122"/><rect width="4.244" height="449.749" x="780.878" y="50.251" fill="#9EA0A3" rx="2.122"/><rect width="4.244" height="500" x="789.366" fill="#9EA0A3" rx="2.122"/><rect width="4.244" height="406.198" x="797.854" y="93.802" fill="#9EA0A3" rx="2.122"/><rect width="4.244" height="362.647" x="806.341" y="137.353" fill="#9EA0A3" rx="2.122"/><rect width="4.244" height="379.397" x="814.829" y="120.603" fill="#9EA0A3" rx="2.122"/><rect width="4.244" height="386.097" x="823.317" y="113.903" fill="#9EA0A3" rx="2.122"/><rect width="4.244" height="473.199" x="831.805" y="26.801" fill="#9EA0A3" rx="2.122"/><rect width="4.244" height="486.6" x="840.293" y="13.4" fill="#9EA0A3" rx="2.122"/><rect width="4.244" height="463.149" x="848.781" y="36.851" fill="#9EA0A3" rx="2.122"/><rect width="4.244" height="456.449" x="857.268" y="43.551" fill="#9EA0A3" rx="2.122"/><rect width="4.244" height="426.298" x="865.756" y="73.702" fill="#9EA0A3" rx="2.122"/></svg>